<svg version="1.1" viewBox="0.0 0.0 300.0 300.0" fill="none" stroke="none" stroke-linecap="square" stroke-miterlimit="10" xmlns:xlink="http://www.w3.org/1999/xlink" xmlns="http://www.w3.org/2000/svg"><clipPath id="gf126512a43_0_39.0"><path d="m0 0l300.0 0l0 300.0l-300.0 0l0 -300.0z" clip-rule="nonzero"/></clipPath><g clip-path="url(#gf126512a43_0_39.0)"><path fill="#000000" fill-opacity="0.0" d="m0 0l300.0 0l0 300.0l-300.0 0z" fill-rule="evenodd"/><path fill="#000000" fill-opacity="0.0" d="m33.60173 139.34532l0 0c0 -58.403023 47.34501 -105.748024 105.74803 -105.748024l0 0c28.046127 0 54.943542 11.141277 74.77515 30.972878c19.831604 19.831604 30.972885 46.729034 30.972885 74.77515l0 0c0 58.40303 -47.345 105.74803 -105.74803 105.74803l0 0c-58.403023 0 -105.74803 -47.345 -105.74803 -105.74803z" fill-rule="evenodd"/><path stroke="#666666" stroke-width="24.0" stroke-linejoin="round" stroke-linecap="butt" d="m33.60173 139.34532l0 0c0 -58.403023 47.34501 -105.748024 105.74803 -105.748024l0 0c28.046127 0 54.943542 11.141277 74.77515 30.972878c19.831604 19.831604 30.972885 46.729034 30.972885 74.77515l0 0c0 58.40303 -47.345 105.74803 -105.74803 105.74803l0 0c-58.403023 0 -105.74803 -47.345 -105.74803 -105.74803z" fill-rule="evenodd"/><path fill="#000000" fill-opacity="0.0" d="m207.065 203.7633l71.49606 72.6929" fill-rule="evenodd"/><path stroke="#666666" stroke-width="24.0" stroke-linejoin="round" stroke-linecap="butt" d="m207.065 203.7633l71.49606 72.6929" fill-rule="evenodd"/><path fill="#000000" fill-opacity="0.0" d="m139.34485 84.01239l0 0c30.562653 0 55.338593 24.775925 55.338593 55.338577l0 0c0 14.676712 -5.830307 28.752289 -16.208298 39.130295c-10.378006 10.377991 -24.453583 16.208282 -39.130295 16.208282l0 0c-30.562653 0 -55.338577 -24.775925 -55.338577 -55.338577l0 0c0 -30.562653 24.775925 -55.338577 55.338577 -55.338577z" fill-rule="evenodd"/><path stroke="#666666" stroke-width="24.0" stroke-linejoin="round" stroke-linecap="butt" d="m139.34485 84.01239l0 0c30.562653 0 55.338593 24.775925 55.338593 55.338577l0 0c0 14.676712 -5.830307 28.752289 -16.208298 39.130295c-10.378006 10.377991 -24.453583 16.208282 -39.130295 16.208282l0 0c-30.562653 0 -55.338577 -24.775925 -55.338577 -55.338577l0 0c0 -30.562653 24.775925 -55.338577 55.338577 -55.338577z" fill-rule="evenodd"/><path fill="#000000" fill-opacity="0.0" d="m105.646774 180.63805l-41.354324 40.661423" fill-rule="evenodd"/><path stroke="#666666" stroke-width="24.0" stroke-linejoin="round" stroke-linecap="butt" d="m105.646774 180.63805l-41.354324 40.661423" fill-rule="evenodd"/></g></svg>