<svg version="1.1" viewBox="0.0 0.0 500.0 500.0" fill="none" stroke="none" stroke-linecap="square" stroke-miterlimit="10" xmlns:xlink="http://www.w3.org/1999/xlink" xmlns="http://www.w3.org/2000/svg"><clipPath id="ge3fb146bcc_0_3.0"><path d="m0 0l500.0 0l0 500.0l-500.0 0l0 -500.0z" clip-rule="nonzero"/></clipPath><g clip-path="url(#ge3fb146bcc_0_3.0)"><path fill="#efefef" d="m0 0l500.0 0l0 500.0l-500.0 0z" fill-rule="evenodd"/><path fill="#000000" fill-opacity="0.0" d="m43.09974 -11.582677l453.22836 0l0 455.71652l-453.22836 0z" fill-rule="evenodd"/><path fill="#666666" d="m68.802864 246.32983q0 -44.8125 20.5625 -70.921875q20.5625 -26.109375 55.203117 -26.109375q33.75 0 53.25 22.6875l1.40625 -19.171875l29.890625 0l0 263.32812l-32.515625 0l0 -90.703125q-19.6875 21.09375 -52.390625 21.09375q-34.453117 0 -54.937492 -26.796875q-20.46875 -26.8125 -20.46875 -71.109375l0 -2.296875zm32.515625 3.703125q0 32.6875 13.796875 51.328125q13.796867 18.625 37.187492 18.625q29.0 0 44.296875 -25.65625l0 -93.171875q-15.46875 -25.140625 -43.953125 -25.140625q-23.546875 0 -37.437492 18.734375q-13.890625 18.71875 -13.890625 55.28125zm328.71875 -50.109375l-146.60938 0l0 -28.296875l146.60938 0l0 28.296875zm0 72.953125l-146.60938 0l0 -28.125l146.60938 0l0 28.125z" fill-rule="nonzero"/></g></svg>